Coordinates
version=1
nRows=41
nColumns=38
inDegrees=no

Units are S.I. units (second, meters, Newtons, ...)
If the header above contains a line with 'inDegrees', this indicates whether rotational values are in degrees (yes) or radians (no).

endheader
time	pelvis_tilt	pelvis_list	pelvis_rotation	pelvis_tx	pelvis_ty	pelvis_tz	hip_flexion_r	hip_adduction_r	hip_rotation_r	knee_angle_r	ankle_angle_r	subtalar_angle_r	mtp_angle_r	hip_flexion_l	hip_adduction_l	hip_rotation_l	knee_angle_l	ankle_angle_l	subtalar_angle_l	mtp_angle_l	lumbar_extension	lumbar_bending	lumbar_rotation	arm_flex_r	arm_add_r	arm_rot_r	elbow_flex_r	pro_sup_r	wrist_flex_r	wrist_dev_r	arm_flex_l	arm_add_l	arm_rot_l	elbow_flex_l	pro_sup_l	wrist_flex_l	wrist_dev_l
1.32	0.277001	1.3085	-1.96899	0.721619	-0.0848756	0.908015	-0.419659	-0.224457	-0.307286	0.637565	0.248313	0	0	0.175015	0.0916522	-0.371825	0.243604	-0.112689	0	0	-0.25649	-0.155893	0.129737	0.214978	-0.543563	-0.0423624	1.48117	0.927035	0	0	0.377458	-0.43583	-0.0337405	1.67226	1.5708	0	0
1.33	0.242626	1.29112	-1.92796	0.72384	-0.0985448	0.911398	-0.44066	-0.212578	-0.268758	0.649245	0.185523	0	0	0.159307	0.0851169	-0.371588	0.287924	-0.0985944	0	0	-0.27524	-0.15207	0.122807	0.211258	-0.538272	-0.0470551	1.47868	0.932497	0	0	0.378593	-0.436172	-0.0303366	1.66811	1.5708	0	0
1.34	0.266249	1.2838	-1.94759	0.72622	-0.111796	0.912654	-0.407123	-0.237597	-0.261861	0.73509	0.123077	0	0	0.158795	0.0919018	-0.370947	0.32786	-0.0795432	0	0	-0.277901	-0.160764	0.11819	0.205179	-0.533807	-0.0496409	1.47855	0.947919	0	0	0.379926	-0.437833	-0.0261424	1.66567	1.5708	0	0
1.35	0.290038	1.27832	-1.96633	0.728761	-0.124784	0.913864	-0.367465	-0.260986	-0.249747	0.820517	0.0482625	0	0	0.156206	0.0994862	-0.371515	0.358444	-0.0616387	0	0	-0.279305	-0.168525	0.112386	0.200026	-0.531033	-0.0508769	1.47908	0.95888	0	0	0.380657	-0.439511	-0.0226986	1.66432	1.5708	0	0
1.36	0.32035	1.27641	-1.98996	0.731326	-0.138293	0.914466	-0.322661	-0.282902	-0.234786	0.903383	-0.0303093	0	0	0.153537	0.109338	-0.372642	0.3796	-0.0471403	0	0	-0.286499	-0.175227	0.0956787	0.198341	-0.530042	-0.0477142	1.497	0.964146	0	0	0.365367	-0.448375	-0.0411832	1.691	1.5708	0	0
1.37	0.338223	1.27518	-2.00224	0.734121	-0.151058	0.915037	-0.274626	-0.298833	-0.212583	0.983754	-0.106403	0	0	0.147483	0.118346	-0.370425	0.392147	-0.0427752	0	0	-0.283767	-0.178394	0.0884179	0.195571	-0.532841	-0.0422033	1.49938	0.960319	0	0	0.362963	-0.451186	-0.0411552	1.69195	1.5708	0	0
1.38	0.3502	1.27549	-2.0099	0.736844	-0.163805	0.915391	-0.223935	-0.31043	-0.186615	1.0605	-0.17948	0	0	0.139474	0.126672	-0.367203	0.398599	-0.0443842	0	0	-0.279515	-0.179048	0.0821075	0.194035	-0.537123	-0.0350116	1.5022	0.948337	0	0	0.358986	-0.454344	-0.0424509	1.69308	1.5708	0	0
1.39	0.351257	1.27397	-2.00831	0.739323	-0.176336	0.916073	-0.176762	-0.316595	-0.15806	1.13018	-0.243902	0	0	0.12638	0.133391	-0.36192	0.402212	-0.0420386	0	0	-0.278663	-0.177533	0.0766926	0.195073	-0.542277	-0.0267357	1.50423	0.939337	0	0	0.354591	-0.457919	-0.0449718	1.6949	1.5708	0	0
1.4	0.347214	1.2699	-2.00336	0.741505	-0.18856	0.917239	-0.134632	-0.319581	-0.128635	1.19113	-0.286392	0	0	0.109471	0.140406	-0.353287	0.405004	-0.0353311	0	0	-0.282362	-0.176989	0.0753087	0.217152	-0.519873	-0.171672	1.46121	1.5708	0	0	0.354137	-0.460183	-0.0442085	1.6972	1.5708	0	0
1.41	0.327373	1.25905	-1.98422	0.743514	-0.199559	0.919468	-0.102999	-0.317466	-0.0988262	1.24382	-0.291632	0	0	0.0843277	0.145908	-0.341814	0.406901	-0.0287544	0	0	-0.286534	-0.175383	0.079268	0.220255	-0.522751	-0.167528	1.44795	1.5708	0	0	0.366101	-0.458555	-0.0285672	1.67806	1.5708	0	0
1.42	0.314887	1.25022	-1.97307	0.745192	-0.211074	0.921793	-0.0703711	-0.314585	-0.0692521	1.29527	-0.260605	0	0	0.0598287	0.1523	-0.331514	0.405754	-0.0222118	0	0	-0.29642	-0.173075	0.0721139	0.206693	-0.549794	-0.00753327	1.4969	0.908867	0	0	0.35891	-0.463106	-0.037572	1.6833	1.5708	0	0
1.43	0.30241	1.24386	-1.96163	0.746809	-0.222613	0.924325	-0.0365066	-0.308301	-0.0413626	1.34248	-0.212762	0	0	0.0361653	0.157215	-0.321905	0.402133	-0.0164585	0	0	-0.304365	-0.170577	0.0693276	0.20886	-0.548158	-0.00635958	1.49859	0.898388	0	0	0.355399	-0.463992	-0.0422616	1.68696	1.5708	0	0
1.44	0.290141	1.24088	-1.94994	0.748514	-0.234173	0.926911	-0.00142518	-0.299303	-0.017017	1.3811	-0.163473	0	0	0.0134515	0.160643	-0.313167	0.394572	-0.0105651	0	0	-0.309172	-0.167466	0.0715964	0.227137	-0.517434	-0.168001	1.4497	1.5708	0	0	0.35641	-0.460825	-0.0407208	1.68734	1.5708	0	0
1.45	0.276936	1.2391	-1.93638	0.7503	-0.245484	0.929541	0.0323473	-0.288093	0.004504	1.41101	-0.121636	0	0	-0.00977256	0.162555	-0.307404	0.384284	-0.00455471	0	0	-0.312203	-0.162148	0.070049	0.22581	-0.514598	-0.171643	1.45016	1.5708	0	0	0.352884	-0.458078	-0.0441338	1.68829	1.5708	0	0
1.46	0.262026	1.23794	-1.91977	0.752204	-0.256403	0.932205	0.0642372	-0.275455	0.0227302	1.43322	-0.0869607	0	0	-0.032728	0.162602	-0.305008	0.373285	0.00101883	0	0	-0.314447	-0.154445	0.0636811	0.2045	-0.54172	-0.00976577	1.50432	0.861576	0	0	0.345026	-0.456263	-0.0535532	1.68928	1.5708	0	0
1.47	0.247489	1.23929	-1.90172	0.754221	-0.267058	0.934812	0.0964507	-0.261825	0.0367856	1.44845	-0.0572676	0	0	-0.0521781	0.16064	-0.304942	0.363289	0.00573916	0	0	-0.316108	-0.147817	0.0635655	0.224058	-0.510363	-0.175566	1.44869	1.5708	0	0	0.346808	-0.451867	-0.0509854	1.68707	1.5708	0	0
1.48	0.2322	1.24021	-1.88115	0.756315	-0.277264	0.937373	0.12639	-0.248655	0.0462219	1.4581	-0.029921	0	0	-0.0711519	0.157632	-0.304701	0.354002	0.00825002	0	0	-0.317345	-0.13881	0.0532989	0.206511	-0.537588	-0.0123374	1.49836	0.883287	0	0	0.339688	-0.45154	-0.0605682	1.68774	1.5708	0	0
1.49	0.218887	1.2425	-1.86027	0.758548	-0.287253	0.939834	0.155637	-0.236768	0.0504649	1.4625	-0.00310105	0	0	-0.0877966	0.154353	-0.302509	0.345072	0.00923	0	0	-0.318533	-0.130889	0.0448067	0.207931	-0.537491	-0.00913804	1.4964	0.872043	0	0	0.338305	-0.45086	-0.063306	1.68765	1.5708	0	0
1.5	0.213141	1.22456	-1.83516	0.763623	-0.296627	0.944851	0.153772	-0.243938	0.0375818	1.45061	0.0207663	0	0	-0.132555	0.165949	-0.275994	0.317838	-0.00487261	0	0	-0.34426	-0.12427	0.0228462	0.221516	-0.538912	-0.0111874	1.49019	0.885062	0	0	0.341446	-0.447734	-0.065405	1.68733	1.5708	0	0
1.51	0.202472	1.22762	-1.81221	0.766342	-0.306185	0.94726	0.179155	-0.235735	0.0329062	1.44256	0.0429227	0	0	-0.147628	0.162689	-0.268383	0.308038	-0.00512921	0	0	-0.347152	-0.11643	0.0142247	0.239028	-0.514136	-0.165625	1.44005	1.5708	0	0	0.347616	-0.447524	-0.0595319	1.68656	1.5708	0	0
1.52	0.183292	1.24856	-1.7926	0.766181	-0.316179	0.947243	0.229277	-0.211628	0.040433	1.43867	0.0640396	0	0	-0.138814	0.147227	-0.283442	0.310844	0.00737275	0	0	-0.327961	-0.10722	0.0161214	0.236293	-0.509796	-0.168857	1.43705	1.5708	0	0	0.347543	-0.451974	-0.0574166	1.6872	1.5708	0	0
1.53	0.171299	1.2513	-1.76819	0.768808	-0.32551	0.949596	0.250185	-0.20516	0.0315334	1.41983	0.0832937	0	0	-0.154961	0.144182	-0.273618	0.29911	0.00656272	0	0	-0.331084	-0.0983781	0.00542036	0.236834	-0.510593	-0.170158	1.43646	1.5708	0	0	0.352254	-0.453532	-0.0531593	1.68647	1.5708	0	0
1.54	0.154181	1.2468	-1.73988	0.771574	-0.334271	0.952051	0.261267	-0.199743	0.0211982	1.39564	0.0964832	0	0	-0.179662	0.141559	-0.262468	0.285481	0.00505366	0	0	-0.344822	-0.0828743	-0.00680344	0.323916	-0.500411	-0.0728829	1.41376	1.28561	0	0	0.354279	-0.454999	-0.0581357	1.68624	1.5708	0	0
1.55	0.145079	1.25559	-1.71776	0.773956	-0.343651	0.95422	0.283202	-0.192966	0.00948815	1.36458	0.10275	0	0	-0.188992	0.137834	-0.248086	0.272741	0.001624	0	0	-0.340038	-0.0801697	-0.0128849	0.23567	-0.514142	-0.173891	1.44038	1.5708	0	0	0.365815	-0.45507	-0.0415315	1.68393	1.5708	0	0
1.56	0.130734	1.2568	-1.69198	0.776451	-0.352587	0.956409	0.294973	-0.186994	-0.00298567	1.32926	0.110283	0	0	-0.207003	0.133947	-0.236131	0.258612	-0.000330595	0	0	-0.344837	-0.0695306	-0.0249118	0.226137	-0.537863	-0.0245699	1.48585	0.912917	0	0	0.36789	-0.456699	-0.0419203	1.68384	1.5708	0	0
1.57	0.116659	1.25927	-1.66649	0.778868	-0.361632	0.958496	0.305463	-0.181523	-0.0169742	1.2891	0.118241	0	0	-0.223643	0.129351	-0.224965	0.244512	-0.00283979	0	0	-0.348464	-0.0607905	-0.0332492	0.211715	-0.546978	-0.0160027	1.49632	0.866894	0	0	0.373865	-0.45655	-0.0366096	1.68295	1.5708	0	0
1.58	0.104867	1.26107	-1.64414	0.781169	-0.370691	0.96039	0.31326	-0.176796	-0.030448	1.2448	0.124339	0	0	-0.241052	0.125401	-0.2151	0.230054	-0.00469844	0	0	-0.352659	-0.0524669	-0.0411391	0.214088	-0.546063	-0.0222408	1.49491	0.871954	0	0	0.37921	-0.456282	-0.0328557	1.68226	1.5708	0	0
1.59	0.095733	1.26305	-1.62558	0.783308	-0.379725	0.962033	0.319316	-0.172711	-0.0438251	1.19632	0.128963	0	0	-0.257992	0.1222	-0.205601	0.215807	-0.00635611	0	0	-0.356285	-0.0454251	-0.0485084	0.216699	-0.544012	-0.0286062	1.49336	0.883727	0	0	0.384232	-0.456756	-0.0288534	1.68186	1.5708	0	0
1.6	0.104438	1.24459	-1.60504	0.789252	-0.387088	0.966005	0.289601	-0.189492	-0.0828996	1.1311	0.131258	0	0	-0.298926	0.126371	-0.162726	0.193369	-0.0222478	0	0	-0.387577	-0.0359592	-0.0719875	0.243386	-0.521605	-0.189463	1.44607	1.5708	0	0	0.401455	-0.454058	-0.0179127	1.68004	1.5708	0	0
1.61	0.0791733	1.26812	-1.59312	0.787251	-0.397852	0.964413	0.323659	-0.163801	-0.0713236	1.08229	0.134803	0	0	-0.289816	0.116479	-0.188831	0.187863	-0.00851291	0	0	-0.361104	-0.0324819	-0.0612065	0.218623	-0.543845	-0.0342573	1.49435	0.888944	0	0	0.393009	-0.457699	-0.0223144	1.6814	1.5708	0	0
1.62	0.0714098	1.27084	-1.5785	0.789073	-0.406957	0.965151	0.322464	-0.159232	-0.0862035	1.01933	0.13551	0	0	-0.304829	0.113807	-0.181364	0.175182	-0.00725477	0	0	-0.362453	-0.0264367	-0.0660435	0.220094	-0.544794	-0.0363786	1.49521	0.886289	0	0	0.397067	-0.456702	-0.0201795	1.68044	1.5708	0	0
1.63	0.0647379	1.27451	-1.56621	0.790681	-0.41609	0.965432	0.320396	-0.154289	-0.101008	0.952714	0.135653	0	0	-0.318315	0.111733	-0.173592	0.163685	-0.00541813	0	0	-0.362531	-0.0212978	-0.0698322	0.221671	-0.545485	-0.0383107	1.49587	0.88638	0	0	0.401265	-0.456427	-0.0176786	1.67957	1.5708	0	0
1.64	0.0606107	1.27898	-1.55794	0.792049	-0.425318	0.965242	0.317138	-0.149288	-0.11555	0.882291	0.134339	0	0	-0.330669	0.110904	-0.165658	0.152916	-0.00306353	0	0	-0.361163	-0.0176627	-0.0720204	0.221614	-0.545586	-0.0411198	1.498	0.883885	0	0	0.405014	-0.455321	-0.0162138	1.67877	1.5708	0	0
1.65	0.0593608	1.28447	-1.55369	0.793182	-0.434656	0.964566	0.31329	-0.144398	-0.130561	0.809252	0.133893	0	0	-0.341003	0.111042	-0.159786	0.144263	0.00146914	0	0	-0.35858	-0.0153661	-0.0735362	0.221282	-0.545948	-0.0430231	1.50136	0.879696	0	0	0.408087	-0.454628	-0.0155843	1.67862	1.5708	0	0
1.66	0.0837256	1.26826	-1.55263	0.798239	-0.441959	0.966205	0.273733	-0.159723	-0.177938	0.723207	0.130789	0	0	-0.373813	0.116071	-0.12125	0.133648	-0.00451929	0	0	-0.384895	-0.0100093	-0.0972225	0.231028	-0.549835	-0.0453692	1.5046	0.884003	0	0	0.420125	-0.452994	-0.0139883	1.67863	1.5708	0	0
1.67	0.0597073	1.29789	-1.54976	0.795173	-0.453592	0.961814	0.302416	-0.133616	-0.168213	0.653705	0.128694	0	0	-0.357319	0.112416	-0.149439	0.131115	0.0167614	0	0	-0.349991	-0.0123031	-0.0756435	0.223424	-0.545606	-0.0506917	1.50406	0.888673	0	0	0.412836	-0.453174	-0.0160311	1.67897	1.5708	0	0
1.68	0.0572355	1.30672	-1.54616	0.795974	-0.463288	0.9596	0.295924	-0.125415	-0.189452	0.570632	0.120871	0	0	-0.360818	0.111887	-0.149679	0.130003	0.0305017	0	0	-0.342708	-0.010678	-0.0755218	0.222844	-0.546223	-0.053417	1.5074	0.895096	0	0	0.414785	-0.452664	-0.0152894	1.67899	1.5708	0	0
1.69	0.0596265	1.31537	-1.54852	0.79651	-0.473102	0.956999	0.287744	-0.116666	-0.209842	0.48667	0.116924	0	0	-0.364959	0.113226	-0.149519	0.127883	0.0434257	0	0	-0.336277	-0.0121775	-0.0713378	0.242042	-0.520178	-0.211195	1.46529	1.5708	0	0	0.421249	-0.451547	-0.00926731	1.67857	1.5708	0	0
1.7	0.0683087	1.3234	-1.55841	0.79675	-0.482926	0.954018	0.278661	-0.107613	-0.228989	0.404207	0.115065	0	0	-0.36963	0.116416	-0.150096	0.126103	0.0562346	0	0	-0.329557	-0.0151494	-0.0693534	0.241837	-0.519432	-0.215893	1.47015	1.5708	0	0	0.424065	-0.451283	-0.0100537	1.67869	1.5708	0	0
1.71	0.0835171	1.33111	-1.57609	0.796714	-0.492914	0.950749	0.268561	-0.0979968	-0.246165	0.323052	0.109788	0	0	-0.375473	0.121302	-0.150315	0.123522	0.0692089	0	0	-0.322677	-0.0203407	-0.0670891	0.243166	-0.518546	-0.218233	1.47289	1.5708	0	0	0.426455	-0.452214	-0.0110509	1.67869	1.5708	0	0
1.72	0.104933	1.33744	-1.60104	0.796449	-0.50315	0.94728	0.256656	-0.0880505	-0.2612	0.245466	0.10235	0	0	-0.384259	0.127601	-0.149915	0.119133	0.0828324	0	0	-0.315149	-0.0267312	-0.0684968	0.223705	-0.544441	-0.0581761	1.52289	0.891244	0	0	0.424242	-0.456229	-0.016936	1.67931	1.5708	0	0
